<mxfile host="app.diagrams.net" modified="2024-06-21T00:16:30.255Z" agent="Mozilla/5.0 (X11; Linux x86_64) AppleWebKit/537.36 (KHTML, like Gecko) Chrome/126.0.0.0 Safari/537.36" etag="dtROH841ocQ4mG_NVhN8" version="24.6.0" type="device">
  <diagram name="Page-1" id="Mg-w1ocDhV4yeSpSVFJD">
    <mxGraphModel dx="989" dy="523" grid="1" gridSize="10" guides="1" tooltips="1" connect="1" arrows="1" fold="1" page="1" pageScale="1" pageWidth="1200" pageHeight="1920" math="0" shadow="0">
      <root>
        <mxCell id="0" />
        <mxCell id="1" parent="0" />
        <mxCell id="c5_7h0qf2dceUBtzriQi-1" value="[ 53 ]" style="text;html=1;align=center;verticalAlign=middle;whiteSpace=wrap;rounded=0;fillColor=#f5f5f5;fontColor=#333333;strokeColor=#666666;fontFamily=Lucida Console;horizontal=1;fontSize=20;" vertex="1" parent="1">
          <mxGeometry x="280" y="160" width="320" height="40" as="geometry" />
        </mxCell>
        <mxCell id="c5_7h0qf2dceUBtzriQi-3" value="&lt;pre&gt;&lt;div class=&quot;dark bg-gray-950 rounded-md border-[0.5px] border-token-border-medium&quot;&gt;&lt;div dir=&quot;ltr&quot; class=&quot;overflow-y-auto p-4&quot;&gt;&lt;code class=&quot;!whitespace-pre hljs language-css&quot;&gt;&lt;span class=&quot;hljs-selector-attr&quot;&gt;[ 53, 62 ]&lt;/span&gt;&lt;br/&gt;&lt;/code&gt;&lt;/div&gt;&lt;/div&gt;&lt;/pre&gt;&lt;h3&gt;&lt;/h3&gt;" style="text;html=1;align=center;verticalAlign=middle;whiteSpace=wrap;rounded=0;fillColor=#f5f5f5;fontColor=#333333;strokeColor=#666666;fontFamily=Lucida Console;horizontal=1;fontSize=20;" vertex="1" parent="1">
          <mxGeometry x="280" y="280" width="320" height="40" as="geometry" />
        </mxCell>
        <mxCell id="c5_7h0qf2dceUBtzriQi-5" value="&lt;pre&gt;&lt;div class=&quot;dark bg-gray-950 rounded-md border-[0.5px] border-token-border-medium&quot;&gt;&lt;div dir=&quot;ltr&quot; class=&quot;overflow-y-auto p-4&quot;&gt;&lt;code class=&quot;!whitespace-pre hljs language-css&quot;&gt;&lt;span class=&quot;hljs-selector-attr&quot;&gt;[ 31, 53, 62 ]&lt;/span&gt;&lt;br&gt;&lt;/code&gt;&lt;/div&gt;&lt;/div&gt;&lt;/pre&gt;&lt;h3&gt;&lt;/h3&gt;" style="text;html=1;align=center;verticalAlign=middle;whiteSpace=wrap;rounded=0;fillColor=#f5f5f5;fontColor=#333333;strokeColor=#666666;fontFamily=Lucida Console;horizontal=1;fontSize=20;" vertex="1" parent="1">
          <mxGeometry x="280" y="400" width="320" height="40" as="geometry" />
        </mxCell>
        <mxCell id="c5_7h0qf2dceUBtzriQi-6" value="&lt;pre&gt;&lt;div class=&quot;dark bg-gray-950 rounded-md border-[0.5px] border-token-border-medium&quot;&gt;&lt;div dir=&quot;ltr&quot; class=&quot;overflow-y-auto p-4&quot;&gt;&lt;code class=&quot;!whitespace-pre hljs language-css&quot;&gt;&lt;pre&gt;&lt;div class=&quot;dark bg-gray-950 rounded-md border-[0.5px] border-token-border-medium&quot;&gt;&lt;div dir=&quot;ltr&quot; class=&quot;overflow-y-auto p-4&quot;&gt;&lt;code class=&quot;!whitespace-pre hljs language-css&quot;&gt;&lt;span class=&quot;hljs-selector-attr&quot;&gt;[ 31, 53, 62, 105 ]&lt;/span&gt;&lt;br/&gt;&lt;/code&gt;&lt;/div&gt;&lt;/div&gt;&lt;/pre&gt;&lt;h3&gt;&lt;/h3&gt;&lt;/code&gt;&lt;/div&gt;&lt;/div&gt;&lt;/pre&gt;&lt;h3&gt;&lt;/h3&gt;" style="text;html=1;align=center;verticalAlign=middle;whiteSpace=wrap;rounded=0;fillColor=#f5f5f5;fontColor=#333333;strokeColor=#666666;fontFamily=Lucida Console;horizontal=1;fontSize=20;" vertex="1" parent="1">
          <mxGeometry x="280" y="520" width="320" height="40" as="geometry" />
        </mxCell>
        <mxCell id="c5_7h0qf2dceUBtzriQi-10" style="edgeStyle=orthogonalEdgeStyle;rounded=0;orthogonalLoop=1;jettySize=auto;html=1;exitX=0.504;exitY=1.115;exitDx=0;exitDy=0;entryX=0.5;entryY=0;entryDx=0;entryDy=0;exitPerimeter=0;" edge="1" parent="1" source="c5_7h0qf2dceUBtzriQi-7" target="c5_7h0qf2dceUBtzriQi-8">
          <mxGeometry relative="1" as="geometry">
            <mxPoint x="440.0000000000002" y="760" as="sourcePoint" />
          </mxGeometry>
        </mxCell>
        <mxCell id="c5_7h0qf2dceUBtzriQi-11" style="edgeStyle=orthogonalEdgeStyle;rounded=0;orthogonalLoop=1;jettySize=auto;html=1;exitX=0.5;exitY=1;exitDx=0;exitDy=0;entryX=0.5;entryY=0;entryDx=0;entryDy=0;" edge="1" parent="1" source="c5_7h0qf2dceUBtzriQi-7" target="c5_7h0qf2dceUBtzriQi-9">
          <mxGeometry relative="1" as="geometry">
            <mxPoint x="440.0000000000002" y="760" as="sourcePoint" />
          </mxGeometry>
        </mxCell>
        <mxCell id="c5_7h0qf2dceUBtzriQi-7" value="&lt;pre&gt;&lt;div class=&quot;dark bg-gray-950 rounded-md border-[0.5px] border-token-border-medium&quot;&gt;&lt;div dir=&quot;ltr&quot; class=&quot;overflow-y-auto p-4&quot;&gt;&lt;code class=&quot;!whitespace-pre hljs language-css&quot;&gt;&lt;pre&gt;&lt;div class=&quot;dark bg-gray-950 rounded-md border-[0.5px] border-token-border-medium&quot;&gt;&lt;div dir=&quot;ltr&quot; class=&quot;overflow-y-auto p-4&quot;&gt;&lt;code class=&quot;!whitespace-pre hljs language-css&quot;&gt;&lt;span class=&quot;hljs-selector-attr&quot;&gt;[ 62 ]&lt;/span&gt;&lt;br&gt;&lt;/code&gt;&lt;/div&gt;&lt;/div&gt;&lt;/pre&gt;&lt;h3&gt;&lt;/h3&gt;&lt;/code&gt;&lt;/div&gt;&lt;/div&gt;&lt;/pre&gt;&lt;h3&gt;&lt;/h3&gt;" style="text;html=1;align=center;verticalAlign=middle;whiteSpace=wrap;rounded=0;fillColor=#f5f5f5;fontColor=#333333;strokeColor=#666666;fontFamily=Lucida Console;horizontal=1;fontSize=20;" vertex="1" parent="1">
          <mxGeometry x="280" y="720" width="320" height="40" as="geometry" />
        </mxCell>
        <mxCell id="c5_7h0qf2dceUBtzriQi-8" value="&lt;pre&gt;&lt;div class=&quot;dark bg-gray-950 rounded-md border-[0.5px] border-token-border-medium&quot;&gt;&lt;div dir=&quot;ltr&quot; class=&quot;overflow-y-auto p-4&quot;&gt;&lt;code class=&quot;!whitespace-pre hljs language-css&quot;&gt;&lt;pre&gt;&lt;div class=&quot;dark bg-gray-950 rounded-md border-[0.5px] border-token-border-medium&quot;&gt;&lt;div dir=&quot;ltr&quot; class=&quot;overflow-y-auto p-4&quot;&gt;&lt;code class=&quot;!whitespace-pre hljs language-css&quot;&gt;&lt;span class=&quot;hljs-selector-attr&quot;&gt;[ 31, 53 ]&lt;/span&gt;&lt;br&gt;&lt;/code&gt;&lt;/div&gt;&lt;/div&gt;&lt;/pre&gt;&lt;h3&gt;&lt;/h3&gt;&lt;/code&gt;&lt;/div&gt;&lt;/div&gt;&lt;/pre&gt;&lt;h3&gt;&lt;/h3&gt;" style="text;html=1;align=center;verticalAlign=middle;whiteSpace=wrap;rounded=0;fillColor=#f5f5f5;fontColor=#333333;strokeColor=#666666;fontFamily=Lucida Console;horizontal=1;fontSize=20;" vertex="1" parent="1">
          <mxGeometry x="80" y="840" width="320" height="40" as="geometry" />
        </mxCell>
        <mxCell id="c5_7h0qf2dceUBtzriQi-9" value="&lt;pre&gt;&lt;div class=&quot;dark bg-gray-950 rounded-md border-[0.5px] border-token-border-medium&quot;&gt;&lt;div dir=&quot;ltr&quot; class=&quot;overflow-y-auto p-4&quot;&gt;&lt;code class=&quot;!whitespace-pre hljs language-css&quot;&gt;&lt;pre&gt;&lt;div class=&quot;dark bg-gray-950 rounded-md border-[0.5px] border-token-border-medium&quot;&gt;&lt;div dir=&quot;ltr&quot; class=&quot;overflow-y-auto p-4&quot;&gt;&lt;code class=&quot;!whitespace-pre hljs language-css&quot;&gt;&lt;span class=&quot;hljs-selector-attr&quot;&gt;[ 85, 105 ]&lt;/span&gt;&lt;br&gt;&lt;/code&gt;&lt;/div&gt;&lt;/div&gt;&lt;/pre&gt;&lt;h3&gt;&lt;/h3&gt;&lt;/code&gt;&lt;/div&gt;&lt;/div&gt;&lt;/pre&gt;&lt;h3&gt;&lt;/h3&gt;" style="text;html=1;align=center;verticalAlign=middle;whiteSpace=wrap;rounded=0;fillColor=#f5f5f5;fontColor=#333333;strokeColor=#666666;fontFamily=Lucida Console;horizontal=1;fontSize=20;" vertex="1" parent="1">
          <mxGeometry x="480" y="840" width="320" height="40" as="geometry" />
        </mxCell>
        <mxCell id="c5_7h0qf2dceUBtzriQi-13" style="edgeStyle=orthogonalEdgeStyle;rounded=0;orthogonalLoop=1;jettySize=auto;html=1;exitX=0.5;exitY=1;exitDx=0;exitDy=0;entryX=0.5;entryY=0;entryDx=0;entryDy=0;" edge="1" source="c5_7h0qf2dceUBtzriQi-15" target="c5_7h0qf2dceUBtzriQi-16" parent="1">
          <mxGeometry relative="1" as="geometry" />
        </mxCell>
        <mxCell id="c5_7h0qf2dceUBtzriQi-14" style="edgeStyle=orthogonalEdgeStyle;rounded=0;orthogonalLoop=1;jettySize=auto;html=1;exitX=0.5;exitY=1;exitDx=0;exitDy=0;entryX=0.5;entryY=0;entryDx=0;entryDy=0;" edge="1" source="c5_7h0qf2dceUBtzriQi-15" target="c5_7h0qf2dceUBtzriQi-17" parent="1">
          <mxGeometry relative="1" as="geometry" />
        </mxCell>
        <mxCell id="c5_7h0qf2dceUBtzriQi-15" value="&lt;pre&gt;&lt;div class=&quot;dark bg-gray-950 rounded-md border-[0.5px] border-token-border-medium&quot;&gt;&lt;div dir=&quot;ltr&quot; class=&quot;overflow-y-auto p-4&quot;&gt;&lt;code class=&quot;!whitespace-pre hljs language-css&quot;&gt;&lt;pre&gt;&lt;div class=&quot;dark bg-gray-950 rounded-md border-[0.5px] border-token-border-medium&quot;&gt;&lt;div dir=&quot;ltr&quot; class=&quot;overflow-y-auto p-4&quot;&gt;&lt;code class=&quot;!whitespace-pre hljs language-css&quot;&gt;&lt;span class=&quot;hljs-selector-attr&quot;&gt;[ 62 ]&lt;/span&gt;&lt;br&gt;&lt;/code&gt;&lt;/div&gt;&lt;/div&gt;&lt;/pre&gt;&lt;h3&gt;&lt;/h3&gt;&lt;/code&gt;&lt;/div&gt;&lt;/div&gt;&lt;/pre&gt;&lt;h3&gt;&lt;/h3&gt;" style="text;html=1;align=center;verticalAlign=middle;whiteSpace=wrap;rounded=0;fillColor=#f5f5f5;fontColor=#333333;strokeColor=#666666;fontFamily=Lucida Console;horizontal=1;fontSize=20;" vertex="1" parent="1">
          <mxGeometry x="280" y="1000" width="320" height="40" as="geometry" />
        </mxCell>
        <mxCell id="c5_7h0qf2dceUBtzriQi-16" value="&lt;pre&gt;&lt;div class=&quot;dark bg-gray-950 rounded-md border-[0.5px] border-token-border-medium&quot;&gt;&lt;div dir=&quot;ltr&quot; class=&quot;overflow-y-auto p-4&quot;&gt;&lt;code class=&quot;!whitespace-pre hljs language-css&quot;&gt;&lt;pre&gt;&lt;div class=&quot;dark bg-gray-950 rounded-md border-[0.5px] border-token-border-medium&quot;&gt;&lt;div dir=&quot;ltr&quot; class=&quot;overflow-y-auto p-4&quot;&gt;&lt;code class=&quot;!whitespace-pre hljs language-css&quot;&gt;&lt;span class=&quot;hljs-selector-attr&quot;&gt;[ 31, 53, 55 ]&lt;/span&gt;&lt;br&gt;&lt;/code&gt;&lt;/div&gt;&lt;/div&gt;&lt;/pre&gt;&lt;h3&gt;&lt;/h3&gt;&lt;/code&gt;&lt;/div&gt;&lt;/div&gt;&lt;/pre&gt;&lt;h3&gt;&lt;/h3&gt;" style="text;html=1;align=center;verticalAlign=middle;whiteSpace=wrap;rounded=0;fillColor=#f5f5f5;fontColor=#333333;strokeColor=#666666;fontFamily=Lucida Console;horizontal=1;fontSize=20;" vertex="1" parent="1">
          <mxGeometry x="80" y="1120" width="320" height="40" as="geometry" />
        </mxCell>
        <mxCell id="c5_7h0qf2dceUBtzriQi-17" value="&lt;pre&gt;&lt;div class=&quot;dark bg-gray-950 rounded-md border-[0.5px] border-token-border-medium&quot;&gt;&lt;div dir=&quot;ltr&quot; class=&quot;overflow-y-auto p-4&quot;&gt;&lt;code class=&quot;!whitespace-pre hljs language-css&quot;&gt;&lt;pre&gt;&lt;div class=&quot;dark bg-gray-950 rounded-md border-[0.5px] border-token-border-medium&quot;&gt;&lt;div dir=&quot;ltr&quot; class=&quot;overflow-y-auto p-4&quot;&gt;&lt;code class=&quot;!whitespace-pre hljs language-css&quot;&gt;&lt;span class=&quot;hljs-selector-attr&quot;&gt;[ 85, 105 ]&lt;/span&gt;&lt;br&gt;&lt;/code&gt;&lt;/div&gt;&lt;/div&gt;&lt;/pre&gt;&lt;h3&gt;&lt;/h3&gt;&lt;/code&gt;&lt;/div&gt;&lt;/div&gt;&lt;/pre&gt;&lt;h3&gt;&lt;/h3&gt;" style="text;html=1;align=center;verticalAlign=middle;whiteSpace=wrap;rounded=0;fillColor=#f5f5f5;fontColor=#333333;strokeColor=#666666;fontFamily=Lucida Console;horizontal=1;fontSize=20;" vertex="1" parent="1">
          <mxGeometry x="480" y="1120" width="320" height="40" as="geometry" />
        </mxCell>
        <mxCell id="c5_7h0qf2dceUBtzriQi-18" style="edgeStyle=orthogonalEdgeStyle;rounded=0;orthogonalLoop=1;jettySize=auto;html=1;exitX=0.5;exitY=1.115;exitDx=0;exitDy=0;entryX=0.5;entryY=0;entryDx=0;entryDy=0;exitPerimeter=0;" edge="1" source="c5_7h0qf2dceUBtzriQi-20" target="c5_7h0qf2dceUBtzriQi-21" parent="1">
          <mxGeometry relative="1" as="geometry">
            <mxPoint x="440.0000000000002" y="1350" as="sourcePoint" />
          </mxGeometry>
        </mxCell>
        <mxCell id="c5_7h0qf2dceUBtzriQi-19" style="edgeStyle=orthogonalEdgeStyle;rounded=0;orthogonalLoop=1;jettySize=auto;html=1;exitX=0.5;exitY=1;exitDx=0;exitDy=0;entryX=0.5;entryY=0;entryDx=0;entryDy=0;" edge="1" source="c5_7h0qf2dceUBtzriQi-20" target="c5_7h0qf2dceUBtzriQi-22" parent="1">
          <mxGeometry relative="1" as="geometry">
            <mxPoint x="440.0000000000002" y="1350" as="sourcePoint" />
          </mxGeometry>
        </mxCell>
        <mxCell id="c5_7h0qf2dceUBtzriQi-20" value="&lt;pre&gt;&lt;div class=&quot;dark bg-gray-950 rounded-md border-[0.5px] border-token-border-medium&quot;&gt;&lt;div dir=&quot;ltr&quot; class=&quot;overflow-y-auto p-4&quot;&gt;&lt;code class=&quot;!whitespace-pre hljs language-css&quot;&gt;&lt;pre&gt;&lt;div class=&quot;dark bg-gray-950 rounded-md border-[0.5px] border-token-border-medium&quot;&gt;&lt;div dir=&quot;ltr&quot; class=&quot;overflow-y-auto p-4&quot;&gt;&lt;code class=&quot;!whitespace-pre hljs language-css&quot;&gt;&lt;span class=&quot;hljs-selector-attr&quot;&gt;[ 62 ]&lt;/span&gt;&lt;br&gt;&lt;/code&gt;&lt;/div&gt;&lt;/div&gt;&lt;/pre&gt;&lt;h3&gt;&lt;/h3&gt;&lt;/code&gt;&lt;/div&gt;&lt;/div&gt;&lt;/pre&gt;&lt;h3&gt;&lt;/h3&gt;" style="text;html=1;align=center;verticalAlign=middle;whiteSpace=wrap;rounded=0;fillColor=#f5f5f5;fontColor=#333333;strokeColor=#666666;fontFamily=Lucida Console;horizontal=1;fontSize=20;" vertex="1" parent="1">
          <mxGeometry x="280" y="1280" width="320" height="40" as="geometry" />
        </mxCell>
        <mxCell id="c5_7h0qf2dceUBtzriQi-21" value="&lt;pre&gt;&lt;div class=&quot;dark bg-gray-950 rounded-md border-[0.5px] border-token-border-medium&quot;&gt;&lt;div dir=&quot;ltr&quot; class=&quot;overflow-y-auto p-4&quot;&gt;&lt;code class=&quot;!whitespace-pre hljs language-css&quot;&gt;&lt;pre&gt;&lt;div class=&quot;dark bg-gray-950 rounded-md border-[0.5px] border-token-border-medium&quot;&gt;&lt;div dir=&quot;ltr&quot; class=&quot;overflow-y-auto p-4&quot;&gt;&lt;code class=&quot;!whitespace-pre hljs language-css&quot;&gt;&lt;span class=&quot;hljs-selector-attr&quot;&gt;[ 31, 53, 55 ]&lt;/span&gt;&lt;br&gt;&lt;/code&gt;&lt;/div&gt;&lt;/div&gt;&lt;/pre&gt;&lt;h3&gt;&lt;/h3&gt;&lt;/code&gt;&lt;/div&gt;&lt;/div&gt;&lt;/pre&gt;&lt;h3&gt;&lt;/h3&gt;" style="text;html=1;align=center;verticalAlign=middle;whiteSpace=wrap;rounded=0;fillColor=#f5f5f5;fontColor=#333333;strokeColor=#666666;fontFamily=Lucida Console;horizontal=1;fontSize=20;" vertex="1" parent="1">
          <mxGeometry x="80" y="1400" width="320" height="40" as="geometry" />
        </mxCell>
        <mxCell id="c5_7h0qf2dceUBtzriQi-22" value="&lt;pre&gt;&lt;div class=&quot;dark bg-gray-950 rounded-md border-[0.5px] border-token-border-medium&quot;&gt;&lt;div dir=&quot;ltr&quot; class=&quot;overflow-y-auto p-4&quot;&gt;&lt;code class=&quot;!whitespace-pre hljs language-css&quot;&gt;&lt;pre&gt;&lt;div class=&quot;dark bg-gray-950 rounded-md border-[0.5px] border-token-border-medium&quot;&gt;&lt;div dir=&quot;ltr&quot; class=&quot;overflow-y-auto p-4&quot;&gt;&lt;code class=&quot;!whitespace-pre hljs language-css&quot;&gt;&lt;span class=&quot;hljs-selector-attr&quot;&gt;[ 85 ]&lt;/span&gt;&lt;br&gt;&lt;/code&gt;&lt;/div&gt;&lt;/div&gt;&lt;/pre&gt;&lt;h3&gt;&lt;/h3&gt;&lt;/code&gt;&lt;/div&gt;&lt;/div&gt;&lt;/pre&gt;&lt;h3&gt;&lt;/h3&gt;" style="text;html=1;align=center;verticalAlign=middle;whiteSpace=wrap;rounded=0;fillColor=#f5f5f5;fontColor=#333333;strokeColor=#666666;fontFamily=Lucida Console;horizontal=1;fontSize=20;" vertex="1" parent="1">
          <mxGeometry x="480" y="1400" width="320" height="40" as="geometry" />
        </mxCell>
        <mxCell id="c5_7h0qf2dceUBtzriQi-23" style="edgeStyle=orthogonalEdgeStyle;rounded=0;orthogonalLoop=1;jettySize=auto;html=1;exitX=0.5;exitY=1;exitDx=0;exitDy=0;entryX=0.5;entryY=0;entryDx=0;entryDy=0;" edge="1" source="c5_7h0qf2dceUBtzriQi-25" target="c5_7h0qf2dceUBtzriQi-26" parent="1">
          <mxGeometry relative="1" as="geometry" />
        </mxCell>
        <mxCell id="c5_7h0qf2dceUBtzriQi-24" style="edgeStyle=orthogonalEdgeStyle;rounded=0;orthogonalLoop=1;jettySize=auto;html=1;exitX=0.5;exitY=1;exitDx=0;exitDy=0;entryX=0.5;entryY=0;entryDx=0;entryDy=0;" edge="1" source="c5_7h0qf2dceUBtzriQi-25" target="c5_7h0qf2dceUBtzriQi-27" parent="1">
          <mxGeometry relative="1" as="geometry" />
        </mxCell>
        <mxCell id="c5_7h0qf2dceUBtzriQi-25" value="&lt;pre&gt;&lt;div class=&quot;dark bg-gray-950 rounded-md border-[0.5px] border-token-border-medium&quot;&gt;&lt;div dir=&quot;ltr&quot; class=&quot;overflow-y-auto p-4&quot;&gt;&lt;code class=&quot;!whitespace-pre hljs language-css&quot;&gt;&lt;pre&gt;&lt;div class=&quot;dark bg-gray-950 rounded-md border-[0.5px] border-token-border-medium&quot;&gt;&lt;div dir=&quot;ltr&quot; class=&quot;overflow-y-auto p-4&quot;&gt;&lt;code class=&quot;!whitespace-pre hljs language-css&quot;&gt;&lt;span class=&quot;hljs-selector-attr&quot;&gt;[ 62 ]&lt;/span&gt;&lt;br&gt;&lt;/code&gt;&lt;/div&gt;&lt;/div&gt;&lt;/pre&gt;&lt;h3&gt;&lt;/h3&gt;&lt;/code&gt;&lt;/div&gt;&lt;/div&gt;&lt;/pre&gt;&lt;h3&gt;&lt;/h3&gt;" style="text;html=1;align=center;verticalAlign=middle;whiteSpace=wrap;rounded=0;fillColor=#f5f5f5;fontColor=#333333;strokeColor=#666666;fontFamily=Lucida Console;horizontal=1;fontSize=20;" vertex="1" parent="1">
          <mxGeometry x="280" y="1600" width="320" height="40" as="geometry" />
        </mxCell>
        <mxCell id="c5_7h0qf2dceUBtzriQi-26" value="&lt;pre&gt;&lt;div class=&quot;dark bg-gray-950 rounded-md border-[0.5px] border-token-border-medium&quot;&gt;&lt;div dir=&quot;ltr&quot; class=&quot;overflow-y-auto p-4&quot;&gt;&lt;code class=&quot;!whitespace-pre hljs language-css&quot;&gt;&lt;pre&gt;&lt;div class=&quot;dark bg-gray-950 rounded-md border-[0.5px] border-token-border-medium&quot;&gt;&lt;div dir=&quot;ltr&quot; class=&quot;overflow-y-auto p-4&quot;&gt;&lt;code class=&quot;!whitespace-pre hljs language-css&quot;&gt;&lt;span class=&quot;hljs-selector-attr&quot;&gt;[ 31, 53 ]&lt;/span&gt;&lt;br&gt;&lt;/code&gt;&lt;/div&gt;&lt;/div&gt;&lt;/pre&gt;&lt;h3&gt;&lt;/h3&gt;&lt;/code&gt;&lt;/div&gt;&lt;/div&gt;&lt;/pre&gt;&lt;h3&gt;&lt;/h3&gt;" style="text;html=1;align=center;verticalAlign=middle;whiteSpace=wrap;rounded=0;fillColor=#f5f5f5;fontColor=#333333;strokeColor=#666666;fontFamily=Lucida Console;horizontal=1;fontSize=20;" vertex="1" parent="1">
          <mxGeometry x="80" y="1720" width="320" height="40" as="geometry" />
        </mxCell>
        <mxCell id="c5_7h0qf2dceUBtzriQi-27" value="&lt;pre&gt;&lt;div class=&quot;dark bg-gray-950 rounded-md border-[0.5px] border-token-border-medium&quot;&gt;&lt;div dir=&quot;ltr&quot; class=&quot;overflow-y-auto p-4&quot;&gt;&lt;code class=&quot;!whitespace-pre hljs language-css&quot;&gt;&lt;pre&gt;&lt;div class=&quot;dark bg-gray-950 rounded-md border-[0.5px] border-token-border-medium&quot;&gt;&lt;div dir=&quot;ltr&quot; class=&quot;overflow-y-auto p-4&quot;&gt;&lt;code class=&quot;!whitespace-pre hljs language-css&quot;&gt;&lt;span class=&quot;hljs-selector-attr&quot;&gt;[ 85 ]&lt;/span&gt;&lt;br&gt;&lt;/code&gt;&lt;/div&gt;&lt;/div&gt;&lt;/pre&gt;&lt;h3&gt;&lt;/h3&gt;&lt;/code&gt;&lt;/div&gt;&lt;/div&gt;&lt;/pre&gt;&lt;h3&gt;&lt;/h3&gt;" style="text;html=1;align=center;verticalAlign=middle;whiteSpace=wrap;rounded=0;fillColor=#f5f5f5;fontColor=#333333;strokeColor=#666666;fontFamily=Lucida Console;horizontal=1;fontSize=20;" vertex="1" parent="1">
          <mxGeometry x="480" y="1720" width="320" height="40" as="geometry" />
        </mxCell>
        <mxCell id="c5_7h0qf2dceUBtzriQi-33" value="[&amp;nbsp; ]" style="text;html=1;align=center;verticalAlign=middle;whiteSpace=wrap;rounded=0;fillColor=#f5f5f5;fontColor=#333333;strokeColor=#666666;fontFamily=Lucida Console;horizontal=1;fontSize=20;" vertex="1" parent="1">
          <mxGeometry x="280" y="40" width="320" height="40" as="geometry" />
        </mxCell>
        <mxCell id="c5_7h0qf2dceUBtzriQi-34" value="&lt;div style=&quot;&quot;&gt;&lt;span style=&quot;background-color: initial;&quot;&gt;a. Agregar 53&lt;/span&gt;&lt;/div&gt;" style="text;html=1;align=left;verticalAlign=middle;whiteSpace=wrap;rounded=0;fontSize=20;" vertex="1" parent="1">
          <mxGeometry x="280" y="120" width="320" height="40" as="geometry" />
        </mxCell>
        <mxCell id="c5_7h0qf2dceUBtzriQi-35" value="&lt;div style=&quot;&quot;&gt;&lt;span style=&quot;background-color: initial;&quot;&gt;b. Agregar 62&lt;/span&gt;&lt;/div&gt;" style="text;html=1;align=left;verticalAlign=middle;whiteSpace=wrap;rounded=0;fontSize=20;" vertex="1" parent="1">
          <mxGeometry x="280" y="240" width="320" height="40" as="geometry" />
        </mxCell>
        <mxCell id="c5_7h0qf2dceUBtzriQi-36" value="&lt;div style=&quot;&quot;&gt;&lt;span style=&quot;background-color: initial;&quot;&gt;c. Agregar 31&lt;/span&gt;&lt;/div&gt;" style="text;html=1;align=left;verticalAlign=middle;whiteSpace=wrap;rounded=0;fontSize=20;" vertex="1" parent="1">
          <mxGeometry x="280" y="360" width="320" height="40" as="geometry" />
        </mxCell>
        <mxCell id="c5_7h0qf2dceUBtzriQi-37" value="&lt;div style=&quot;&quot;&gt;&lt;span style=&quot;background-color: initial;&quot;&gt;d. Agregar 105&lt;/span&gt;&lt;/div&gt;" style="text;html=1;align=left;verticalAlign=middle;whiteSpace=wrap;rounded=0;fontSize=20;" vertex="1" parent="1">
          <mxGeometry x="280" y="480" width="320" height="40" as="geometry" />
        </mxCell>
        <mxCell id="c5_7h0qf2dceUBtzriQi-38" value="&lt;div style=&quot;&quot;&gt;&lt;span style=&quot;background-color: initial;&quot;&gt;e. Agregar 85&lt;/span&gt;&lt;/div&gt;" style="text;html=1;align=left;verticalAlign=middle;whiteSpace=wrap;rounded=0;fontSize=20;" vertex="1" parent="1">
          <mxGeometry x="280" y="600" width="320" height="40" as="geometry" />
        </mxCell>
        <mxCell id="c5_7h0qf2dceUBtzriQi-39" value="&lt;div style=&quot;font-size: 15px;&quot;&gt;&lt;span style=&quot;background-color: initial; font-size: 15px;&quot;&gt;Como el nodo raiz tiene 4 claves se hace un Split y se deja como padre a la clave central 62.&lt;/span&gt;&lt;/div&gt;" style="text;html=1;align=left;verticalAlign=middle;whiteSpace=wrap;rounded=0;fontSize=15;horizontal=1;" vertex="1" parent="1">
          <mxGeometry x="280" y="640" width="320" height="80" as="geometry" />
        </mxCell>
        <mxCell id="c5_7h0qf2dceUBtzriQi-40" value="&lt;div style=&quot;&quot;&gt;f. Agregar el 55&lt;br&gt;&lt;/div&gt;" style="text;html=1;align=left;verticalAlign=middle;whiteSpace=wrap;rounded=0;fontSize=20;" vertex="1" parent="1">
          <mxGeometry x="280" y="920" width="320" height="40" as="geometry" />
        </mxCell>
        <mxCell id="c5_7h0qf2dceUBtzriQi-41" value="&lt;div style=&quot;&quot;&gt;&lt;h3&gt;&lt;p&gt;&lt;/p&gt;&lt;/h3&gt;&lt;h3&gt;&lt;span style=&quot;font-weight: normal;&quot;&gt;g. Eliminar el 105&lt;/span&gt;&lt;/h3&gt;&lt;p&gt;&lt;/p&gt;&lt;/div&gt;" style="text;html=1;align=left;verticalAlign=middle;whiteSpace=wrap;rounded=0;fontSize=20;fontStyle=0" vertex="1" parent="1">
          <mxGeometry x="280" y="1200" width="320" height="40" as="geometry" />
        </mxCell>
        <mxCell id="c5_7h0qf2dceUBtzriQi-42" value="&lt;div style=&quot;font-size: 15px;&quot;&gt;&lt;span style=&quot;background-color: initial; font-size: 15px;&quot;&gt;Cada hijo tiene espacio, se agrega del lado izquierdo&lt;/span&gt;&lt;/div&gt;" style="text;html=1;align=left;verticalAlign=middle;whiteSpace=wrap;rounded=0;fontSize=15;horizontal=1;" vertex="1" parent="1">
          <mxGeometry x="280" y="960" width="320" height="40" as="geometry" />
        </mxCell>
        <mxCell id="c5_7h0qf2dceUBtzriQi-43" value="&lt;div style=&quot;font-size: 15px;&quot;&gt;&lt;span style=&quot;background-color: initial; font-size: 15px;&quot;&gt;Eliminamos 105 del hijo derecho&lt;/span&gt;&lt;/div&gt;" style="text;html=1;align=left;verticalAlign=middle;whiteSpace=wrap;rounded=0;fontSize=15;horizontal=1;" vertex="1" parent="1">
          <mxGeometry x="280" y="1240" width="320" height="40" as="geometry" />
        </mxCell>
        <mxCell id="c5_7h0qf2dceUBtzriQi-44" value="&lt;div style=&quot;&quot;&gt;&lt;h3&gt;&lt;p&gt;&lt;/p&gt;&lt;/h3&gt;&lt;h3&gt;&lt;span style=&quot;font-weight: normal;&quot;&gt;h. Eliminar el 62&lt;/span&gt;&lt;/h3&gt;&lt;p&gt;&lt;/p&gt;&lt;/div&gt;" style="text;html=1;align=left;verticalAlign=middle;whiteSpace=wrap;rounded=0;fontSize=20;fontStyle=0" vertex="1" parent="1">
          <mxGeometry x="280" y="1480" width="320" height="40" as="geometry" />
        </mxCell>
        <mxCell id="c5_7h0qf2dceUBtzriQi-45" value="&lt;div style=&quot;font-size: 15px;&quot;&gt;&lt;p&gt;Para eliminar el 62 de la raíz, buscamos el predecesor o sucesor inmediato. El predecesor inmediato es 55.&amp;nbsp;&lt;span style=&quot;background-color: initial;&quot;&gt;Reemplazamos 62 con 55 y luego eliminamos 55 del nodo hoja:&lt;/span&gt;&lt;/p&gt;&lt;/div&gt;" style="text;html=1;align=left;verticalAlign=middle;whiteSpace=wrap;rounded=0;fontSize=15;horizontal=1;" vertex="1" parent="1">
          <mxGeometry x="280" y="1520" width="320" height="80" as="geometry" />
        </mxCell>
      </root>
    </mxGraphModel>
  </diagram>
</mxfile>
